<svg width="31" height="31" viewBox="0 0 31 31" fill="none" xmlns="http://www.w3.org/2000/svg">
<path d="M18.5413 20.498H11.2324" stroke="#006666" stroke-width="2" stroke-miterlimit="10" stroke-linecap="round" stroke-linejoin="round"/>
<path d="M14.887 16.8438V24.1526" stroke="#006666" stroke-width="2" stroke-miterlimit="10" stroke-linecap="round" stroke-linejoin="round"/>
<path d="M16.3485 1.86683L16.3044 1.96639L12.0377 11.5385H7.8446C6.84414 11.5385 5.88782 11.7376 5.01978 12.0932L7.59448 6.14797L7.65333 6.00574L7.75632 5.77817C7.78575 5.69283 7.81517 5.60749 7.85931 5.53638C9.78666 1.22679 11.9641 0.245402 16.3485 1.86683Z" stroke="#006666" stroke-width="2" stroke-linecap="round" stroke-linejoin="round"/>
<path d="M23.9752 11.7278C23.3255 11.5305 22.6325 11.4459 21.9395 11.4459H11.9634L16.1502 1.95951L16.1935 1.86084C16.4101 1.93132 16.6122 2.02999 16.8287 2.11456L20.0194 3.42546C21.7952 4.14434 23.0368 4.89141 23.7875 5.79354C23.9319 5.96269 24.0474 6.11774 24.1484 6.30098C24.2784 6.49832 24.3794 6.69566 24.4372 6.9071C24.4949 7.03396 24.5382 7.16082 24.5671 7.27359C24.9569 8.45763 24.7259 9.90948 23.9752 11.7278Z" stroke="#006666" stroke-width="2" stroke-linecap="round" stroke-linejoin="round"/>
<path d="M29.1392 18.7603V21.5703C29.1392 21.8585 29.1248 22.1467 29.1103 22.4349C28.8363 27.464 26.0238 30.0002 20.6873 30.0002H9.43744C9.09129 30.0002 8.74514 29.9714 8.41341 29.9282C3.8269 29.6256 1.375 27.1758 1.07211 22.5934C1.02885 22.2619 1 21.9161 1 21.5703V18.7603C1 15.8638 2.7596 13.3708 5.2692 12.29C6.13458 11.9298 7.05765 11.728 8.03841 11.728H22.1152C22.8219 11.728 23.5142 11.8289 24.1488 12.0162C27.019 12.8953 29.1392 15.5756 29.1392 18.7603Z" stroke="#006666" stroke-width="2" stroke-linecap="round" stroke-linejoin="round"/>
<path d="M7.57799 6.24609L5.13394 12.2365C2.70385 13.3114 1 15.7906 1 18.6712V14.4722C1 10.4021 3.82113 7.00564 7.57799 6.24609Z" stroke="#006666" stroke-width="2" stroke-linecap="round" stroke-linejoin="round"/>
<path d="M29.1392 14.4407V18.6708C29.1392 15.4946 26.9803 12.7948 24.0229 11.9285C24.7919 10.0517 25.0137 8.57909 24.644 7.35193C24.6144 7.22199 24.5701 7.09206 24.5109 6.97656C27.2612 8.36254 29.1392 11.2067 29.1392 14.4407Z" stroke="#006666" stroke-width="2" stroke-linecap="round" stroke-linejoin="round"/>
</svg>
