<svg width="31" height="30" viewBox="0 0 31 30" fill="none" xmlns="http://www.w3.org/2000/svg">
<path d="M15.7955 5.09536e-06C12.8425 5.09536e-06 9.95594 0.879739 7.50068 2.52796C5.04542 4.17618 3.13177 6.51886 2.00174 9.25975C0.871703 12.0006 0.576035 15.0166 1.15212 17.9264C1.72821 20.8361 3.15017 23.5088 5.2382 25.6066C7.32623 27.7044 9.98654 29.133 12.8827 29.7118C15.7789 30.2906 18.7809 29.9935 21.509 28.8582C24.2372 27.7229 26.5689 25.8003 28.2095 23.3335C29.8501 20.8668 30.7257 17.9667 30.7257 15C30.7273 13.0297 30.3422 11.0784 29.5925 9.25783C28.8428 7.43721 27.7431 5.78298 26.3563 4.38978C24.9696 2.99658 23.3231 1.89175 21.5109 1.1385C19.6988 0.385258 17.7566 -0.0016195 15.7955 5.09536e-06ZM15.7955 26.4706C13.5374 26.4706 11.3299 25.7978 9.45239 24.5374C7.57484 23.277 6.11146 21.4856 5.24732 19.3896C4.38318 17.2936 4.15708 14.9873 4.59762 12.7622C5.03815 10.5371 6.12554 8.49326 7.72227 6.88907C9.31899 5.28488 11.3534 4.19241 13.5681 3.74982C15.7828 3.30722 18.0784 3.53438 20.1647 4.40256C22.2509 5.27074 24.034 6.74096 25.2886 8.62729C26.5431 10.5136 27.2127 12.7313 27.2127 15C27.2157 16.5072 26.9225 18.0001 26.3497 19.3932C25.777 20.7862 24.9362 22.0519 23.8754 23.1177C22.8146 24.1834 21.5548 25.0282 20.1682 25.6036C18.7817 26.179 17.2956 26.4736 15.7955 26.4706ZM18.6937 7.5C18.5351 7.33279 18.3443 7.19967 18.1329 7.10871C17.9216 7.01775 17.6941 6.97086 17.4641 6.97086C17.2342 6.97086 17.0067 7.01775 16.7953 7.10871C16.584 7.19967 16.3932 7.33279 16.2346 7.5L11.2286 12.5294C10.8949 12.8568 10.6298 13.248 10.4488 13.6798C10.2678 14.1117 10.1745 14.5755 10.1745 15.0441C10.1745 15.5127 10.2678 15.9766 10.4488 16.4084C10.6298 16.8403 10.8949 17.2314 11.2286 17.5588L16.2346 22.5882C16.5618 22.9104 17.0024 23.0898 17.4605 23.0875C17.9186 23.0852 18.3574 22.9013 18.6813 22.5758C19.0053 22.2503 19.1883 21.8096 19.1906 21.3493C19.1929 20.889 19.0144 20.4464 18.6937 20.1176L13.7755 15L18.7815 9.97059C19.3963 9.35294 19.3963 8.20588 18.6937 7.5Z" fill="white"/>
</svg>
