<svg width="28" height="30" viewBox="0 0 28 30" fill="none" xmlns="http://www.w3.org/2000/svg">
<path d="M13.6705 0L0 4.93734V7.78537H1.13921V8.63978H26.2019V7.78537H27.3411V4.93734L13.6705 0Z" fill="#006666"/>
<path d="M26.2019 25.4434H1.13921V27.7218H0V30.0002H27.3411V27.7218H26.2019V25.4434Z" fill="#006666"/>
<path d="M19.9363 23.1645V24.3038H24.4931V23.1645H23.9235V10.918H24.4931V9.77881H19.9363V10.918H20.5059V23.1645H19.9363Z" fill="#006666"/>
<path d="M11.3921 23.1645V24.3038H15.9489V23.1645H15.3793V10.918H15.9489V9.77881H11.3921V10.918H11.9617V23.1645H11.3921Z" fill="#006666"/>
<path d="M2.84814 23.1645V24.3038H7.40499V23.1645H6.83539V10.918H7.40499V9.77881H2.84814V10.918H3.41775V23.1645H2.84814Z" fill="#006666"/>
</svg>
