<svg width="38" height="22" viewBox="0 0 38 22" fill="none" xmlns="http://www.w3.org/2000/svg">
<path d="M37.2188 0H4.80793C4.37643 0 4.02668 0.349749 4.02668 0.781241V2.01314H2.79479C2.3633 2.01314 2.01355 2.36289 2.01355 2.79438V4.02619H0.781242C0.34975 4.02619 0 4.37594 0 4.80743V20.966C0 21.3975 0.34975 21.7472 0.781242 21.7472H33.1918C33.6233 21.7472 33.9731 21.3975 33.9731 20.966V19.7341H35.2048C35.6363 19.7341 35.986 19.3843 35.986 18.9528V17.7209H37.2188C37.6502 17.7209 38 17.3712 38 16.9397V0.781159C38 0.34975 37.6502 0 37.2188 0ZM3.8493 5.58867C3.56419 6.70774 2.68147 7.59038 1.56248 7.87557V5.58867H3.8493ZM32.4106 7.87557C31.2914 7.59046 30.4087 6.70774 30.1235 5.58867H32.4106V7.87557ZM28.5291 5.58867C28.8602 7.57097 30.4283 9.13904 32.4107 9.47013V16.3031C30.4282 16.6342 28.8601 18.2024 28.5291 20.1847H5.44386C5.11277 18.2024 3.54478 16.6344 1.56248 16.3032V9.47013C3.54478 9.13888 5.11269 7.57097 5.44386 5.58867H28.5291ZM1.56248 17.8978C2.68155 18.1829 3.56427 19.0657 3.8493 20.1848H1.56248V17.8978ZM30.1235 20.1847C30.4086 19.0656 31.2914 18.1828 32.4106 17.8977V20.1847H30.1235ZM34.4236 18.1716H33.9731V4.80743C33.9731 4.37594 33.6233 4.02619 33.1918 4.02619H3.57595V3.57562H34.4235V18.1716H34.4236ZM36.4375 16.1585H35.986V2.79429C35.986 2.3628 35.6363 2.01305 35.2048 2.01305H5.58917V1.5624H36.4375V16.1585Z" fill="#006666"/>
<path d="M13.2864 17.4951C14.2582 18.8055 15.5723 19.527 16.9865 19.527C18.4008 19.527 19.715 18.8054 20.6867 17.4951C21.6067 16.2548 22.1133 14.6182 22.1133 12.8868C22.1133 11.1553 21.6067 9.51875 20.6867 8.27847C19.715 6.96812 18.4008 6.24658 16.9865 6.24658C15.5723 6.24658 14.2582 6.9682 13.2864 8.27847C12.3664 9.51875 11.8599 11.1553 11.8599 12.8868C11.8599 14.6182 12.3665 16.2549 13.2864 17.4951ZM16.9866 17.9645C16.2421 17.9645 15.5505 17.6372 14.9782 17.0789C15.1004 16.0788 15.9541 15.3016 16.9866 15.3016C18.0192 15.3016 18.8729 16.0788 18.9951 17.0789C18.4227 17.6372 17.7311 17.9645 16.9866 17.9645ZM16.9869 13.7065C16.3272 13.7065 15.7904 13.1699 15.7904 12.5102C15.7904 11.8505 16.3271 11.3137 16.9869 11.3137C17.6465 11.3137 18.1832 11.8504 18.1832 12.5102C18.1832 13.1698 17.6465 13.7065 16.9869 13.7065ZM16.9866 7.80907C18.9519 7.80907 20.5509 10.0869 20.5509 12.8869C20.5509 13.8291 20.3692 14.7116 20.054 15.4688C19.7902 15.0346 19.4366 14.6612 19.0196 14.3732C19.4701 13.882 19.7457 13.2278 19.7457 12.5102C19.7457 10.9889 18.5081 9.75123 16.9869 9.75123C15.4656 9.75123 14.2279 10.9889 14.2279 12.5102C14.2279 13.2277 14.5034 13.8819 14.954 14.3731C14.5369 14.661 14.1831 15.0346 13.9193 15.4688C13.6041 14.7117 13.4224 13.8291 13.4224 12.8869C13.4224 10.0869 15.0213 7.80907 16.9866 7.80907Z" fill="#006666"/>
</svg>
