<svg width="23" height="31" viewBox="0 0 23 31" fill="none" xmlns="http://www.w3.org/2000/svg">
<path d="M19.1945 1H3.8055C2.25607 1 1 2.26128 1 3.81714V27.1829C1 28.7387 2.25607 30 3.8055 30H19.1945C20.7439 30 22 28.7387 22 27.1829V3.81714C22 2.26128 20.7439 1 19.1945 1Z" stroke="#006666" stroke-width="2" stroke-miterlimit="10"/>
<path d="M13.6695 2.99985H8.33047C8.14947 3.00313 7.96996 2.95287 7.80318 2.85221C7.6364 2.75155 7.48596 2.60266 7.3613 2.41489C7.23663 2.22712 7.14042 2.00452 7.07871 1.76104C7.017 1.51756 6.99112 1.25846 7.00269 1H14.9973C15.0089 1.25846 14.983 1.51756 14.9213 1.76104C14.8596 2.00452 14.7634 2.22712 14.6387 2.41489C14.514 2.60266 14.3636 2.75155 14.1968 2.85221C14.03 2.95287 13.8505 3.00313 13.6695 2.99985Z" stroke="#006666" stroke-width="2" stroke-miterlimit="10"/>
<path d="M7 20H11.7042C12.2384 20 12.7507 19.7629 13.1284 19.341C13.5061 18.919 13.7183 18.3467 13.7183 17.75C13.7183 17.1533 13.5061 16.581 13.1284 16.159C12.7507 15.7371 12.2384 15.5 11.7042 15.5H10.2958C10.0313 15.5 9.76938 15.4418 9.52502 15.3287C9.28066 15.2157 9.05863 15.0499 8.8716 14.841C8.68458 14.6321 8.53622 14.384 8.435 14.111C8.33379 13.8381 8.28169 13.5455 8.28169 13.25C8.28169 12.6533 8.49389 12.081 8.8716 11.659C9.24932 11.2371 9.76161 11 10.2958 11H15" stroke="#006666" stroke-width="3" stroke-miterlimit="10"/>
<path d="M11 9V11" stroke="#006666" stroke-width="3" stroke-miterlimit="10"/>
<path d="M11 20V22" stroke="#006666" stroke-width="3" stroke-miterlimit="10"/>
</svg>
