<svg width="26" height="29" viewBox="0 0 26 29" fill="none" xmlns="http://www.w3.org/2000/svg">
<path d="M8.94444 13.1111V6.16667C8.94444 3.86549 10.8099 2 13.1111 2C15.4124 2 17.2778 3.86549 17.2778 6.16667V13.0657M10.8889 27H15.3333C18.4447 27 20.0004 27 21.1889 26.3944C22.2342 25.8618 23.084 25.0119 23.6167 23.9667C24.2222 22.7782 24.2222 21.2225 24.2222 18.1111V14.7778C24.2222 13.2221 24.2222 12.4442 23.9194 11.85C23.6532 11.3273 23.2282 10.9024 22.7056 10.6361C22.1114 10.3333 21.3335 10.3333 19.7778 10.3333H6.44444C4.88875 10.3333 4.11089 10.3333 3.51669 10.6361C2.99401 10.9024 2.56907 11.3273 2.30276 11.85C2 12.4442 2 13.2221 2 14.7778V18.1111C2 21.2225 2 22.7782 2.60551 23.9667C3.13815 25.0119 3.98804 25.8618 5.03339 26.3944C6.22178 27 7.77749 27 10.8889 27Z" stroke="#006666" stroke-width="3.5" stroke-linecap="round" stroke-linejoin="round"/>
</svg>
