<svg width="38" height="32" viewBox="0 0 38 32" fill="none" xmlns="http://www.w3.org/2000/svg">
<path d="M37.1814 30.5455C37.1814 30.9312 37.0322 31.3012 36.7665 31.574C36.5009 31.8467 36.1406 32 35.765 32H1.76997C1.39431 32 1.03404 31.8467 0.768407 31.574C0.502773 31.3012 0.353534 30.9312 0.353516 30.5455V1.45455C0.353516 1.06878 0.502749 0.698807 0.768386 0.426027C1.03402 0.153247 1.39431 0 1.76997 0C2.14564 0 2.50592 0.153247 2.77156 0.426027C3.0372 0.698807 3.18643 1.06878 3.18643 1.45455V21.2161L12.1005 12.0623C12.3662 11.7896 12.7265 11.6363 13.1022 11.6363C13.4778 11.6363 13.8381 11.7896 14.1038 12.0623L18.768 16.8521L27.3882 8L24.8486 5.39213C24.6506 5.18869 24.5157 4.92952 24.4611 4.64737C24.4064 4.36523 24.4345 4.07278 24.5417 3.80701C24.6489 3.54124 24.8305 3.31409 25.0634 3.15426C25.2963 2.99443 25.5701 2.90911 25.8503 2.90909H32.9326C33.3082 2.90911 33.6685 3.06236 33.9341 3.33514C34.1998 3.60791 34.349 3.97787 34.349 4.36364V11.6364C34.349 11.9241 34.2659 12.2053 34.1103 12.4445C33.9546 12.6837 33.7334 12.8701 33.4746 12.9802C33.2157 13.0903 32.9309 13.1191 32.6562 13.063C32.3814 13.0068 32.129 12.8683 31.9309 12.6649L29.3914 10.0571L19.7696 19.9377C19.504 20.2105 19.1437 20.3637 18.768 20.3637C18.3923 20.3637 18.032 20.2105 17.7663 19.9377L13.1022 15.1479L3.18643 25.3304V29.0909H35.765C36.1406 29.0909 36.5009 29.2442 36.7665 29.517C37.0322 29.7897 37.1814 30.1597 37.1814 30.5455Z" fill="#006666"/>
</svg>
