<svg width="33" height="33" viewBox="0 0 33 33" fill="none" xmlns="http://www.w3.org/2000/svg">
<g clip-path="url(#clip0_284_1828)">
<path d="M24.1184 24.7546C22.5444 24.7545 21.2639 23.4681 21.2639 21.8868V17.1241C21.2639 15.5428 22.5444 14.2564 24.1184 14.2564H31.5562C31.6012 14.2564 31.646 14.2578 31.6905 14.2598V9.51545C31.6905 8.2942 30.7051 7.3042 29.4896 7.3042H2.20103C0.9854 7.30413 0 8.29413 0 9.51537V29.4955C0 30.7167 0.9854 31.7068 2.20103 31.7068H29.4896C30.7051 31.7068 31.6905 30.7168 31.6905 29.4955V24.7511C31.646 24.7532 31.6012 24.7546 31.5562 24.7546H24.1184Z" fill="white"/>
<path d="M31.5563 15.8281H24.1185C23.4059 15.8281 22.8281 16.4086 22.8281 17.1245V21.8871C22.8281 22.6031 23.4059 23.1835 24.1185 23.1835H31.5563C32.2689 23.1835 32.8466 22.6031 32.8466 21.8871V17.1245C32.8466 16.4085 32.2689 15.8281 31.5563 15.8281ZM26.6814 21.3769C25.6528 21.3769 24.819 20.5391 24.819 19.5057C24.819 18.4723 25.6528 17.6346 26.6814 17.6346C27.71 17.6346 28.5438 18.4723 28.5438 19.5057C28.5438 20.5391 27.71 21.3769 26.6814 21.3769Z" fill="white"/>
<path d="M25.6573 3.25386C25.1649 1.75648 23.5574 0.943658 22.0671 1.43837L10.8855 5.14974H26.2807L25.6573 3.25386Z" fill="white"/>
</g>
<defs>
<clipPath id="clip0_284_1828">
<rect width="32.8465" height="33" fill="white"/>
</clipPath>
</defs>
</svg>
